<?xml version="1.0" encoding="utf-8"?>
<!-- Generator: Adobe Illustrator 24.1.2, SVG Export Plug-In . SVG Version: 6.00 Build 0)  -->
<svg version="1.1" id="Calque_1" xmlns="http://www.w3.org/2000/svg" xmlns:xlink="http://www.w3.org/1999/xlink" x="0px" y="0px"
	 viewBox="0 0 33.9 34" style="enable-background:new 0 0 33.9 34;" xml:space="preserve">
<path d="M28.6,15.1v-0.4c0-0.8-0.1-1.5-0.2-2.3C28,11.6,27,11.6,27,11.6h-3.1V10c0-1.5-1.5-1.5-1.5-1.5h-3.1V7
	c0-1.5-1.5-1.5-1.5-1.5h-1.5V2.3c0-1.5-1.5-1.5-1.5-1.5c-3.7,0-7.2,1.5-9.9,4.1C2.2,7.5,0.7,11,0.7,14.7c0,3.7,1.5,7.2,4.1,9.8
	c2.6,2.6,6.2,4.1,9.9,4.1h0.4c-0.3-1-0.4-2-0.4-3.1v-0.6c-0.4,0.4-0.9,0.6-1.5,0.6c-1.3,0-2.3-1-2.3-2.3c0-1.3,1-2.3,2.3-2.3
	c0.9,0,1.7,0.5,2.1,1.3c0.7-2.2,2.1-4.1,3.9-5.4c1.9-1.3,4.1-2.1,6.4-2.1C26.5,14.7,27.6,14.9,28.6,15.1z M6.1,16.2
	c-1.3,0-2.3-1-2.3-2.3s1-2.3,2.3-2.3s2.3,1,2.3,2.3S7.4,16.2,6.1,16.2z M10.8,10c-1.3,0-2.3-1-2.3-2.3c0-1.3,1-2.3,2.3-2.3
	c1.3,0,2.3,1,2.3,2.3C13.1,9,12,10,10.8,10z M13.9,17.8c-1.3,0-2.3-1-2.3-2.3c0-1.3,1-2.3,2.3-2.3s2.3,1,2.3,2.3
	C16.2,16.7,15.1,17.8,13.9,17.8z M31.2,26.4v-1.5l1.7-1.2c0.2-0.2,0.3-0.3,0.2-0.5l-1.5-2.6c0-0.2-0.3-0.2-0.5-0.2l-1.9,0.8
	c-0.5-0.3-0.9-0.6-1.4-0.8l-0.3-2c0-0.2-0.2-0.3-0.3-0.3h-3.1c-0.3,0-0.5,0.2-0.5,0.3l-0.3,2c-0.5,0.3-0.8,0.5-1.2,0.8l-1.9-0.8
	c-0.2,0-0.3,0-0.5,0.2l-1.5,2.6c0,0.2,0,0.3,0.2,0.5l1.7,1.2v1.5l-1.7,1.2c-0.2,0.2-0.3,0.3-0.2,0.5l1.5,2.6
	c0.2,0.2,0.3,0.2,0.5,0.2l1.9-0.8c0.3,0.3,0.8,0.6,1.2,0.8l0.3,2c0.2,0.2,0.3,0.3,0.5,0.3h3.1c0.2,0,0.3-0.2,0.3-0.3l0.3-2
	c0.5-0.3,0.8-0.5,1.2-0.8l1.9,0.6c0.2,0,0.3,0,0.5-0.2l1.5-2.6c0.2-0.2,0.2-0.3,0-0.3L31.2,26.4z M25.5,27.8c-1.2,0-2.3-1.1-2.3-2.3
	s1.1-2.3,2.3-2.3c1.2,0,2.3,1.1,2.3,2.3S26.7,27.8,25.5,27.8z"/>
</svg>
